<svg width="24" height="25" viewBox="0 0 24 25" fill="none" xmlns="http://www.w3.org/2000/svg">
<path d="M21 8.10983C19.55 8.10983 18.74 9.5696 19.07 10.6543L15.52 14.2632C15.22 14.1719 14.78 14.1719 14.48 14.2632L11.93 11.6782C12.27 10.5935 11.46 9.12356 10 9.12356C8.55 9.12356 7.73 10.5833 8.07 11.6782L3.51 16.2906C2.44 15.9561 1 16.7772 1 18.2471C1 19.3622 1.9 20.2746 3 20.2746C4.45 20.2746 5.26 18.8148 4.93 17.7301L9.48 13.1075C9.78 13.1988 10.22 13.1988 10.52 13.1075L13.07 15.6925C12.73 16.7772 13.54 18.2471 15 18.2471C16.45 18.2471 17.27 16.7874 16.93 15.6925L20.49 12.0938C21.56 12.4283 23 11.6072 23 10.1373C23 9.02219 22.1 8.10983 21 8.10983Z" fill="white"/>
<path d="M15 9.12356L15.94 7.02514L18 6.08237L15.94 5.1396L15 3.04118L14.08 5.1396L12 6.08237L14.08 7.02514L15 9.12356Z" fill="white"/>
<path d="M3.5 11.151L4 9.12356L6 8.61669L4 8.10983L3.5 6.08237L3 8.10983L1 8.61669L3 9.12356L3.5 11.151Z" fill="white"/>
</svg>
