<svg width="24" height="25" viewBox="0 0 24 25" fill="none" xmlns="http://www.w3.org/2000/svg">
<path d="M16 11.151C17.66 11.151 18.99 9.79265 18.99 8.10985C18.99 6.42706 17.66 5.06866 16 5.06866C14.34 5.06866 13 6.42706 13 8.10985C13 9.79265 14.34 11.151 16 11.151ZM8 11.151C9.66 11.151 10.99 9.79265 10.99 8.10985C10.99 6.42706 9.66 5.06866 8 5.06866C6.34 5.06866 5 6.42706 5 8.10985C5 9.79265 6.34 11.151 8 11.151ZM8 13.1785C5.67 13.1785 1 14.3646 1 16.7266V19.2609H15V16.7266C15 14.3646 10.33 13.1785 8 13.1785ZM16 13.1785C15.71 13.1785 15.38 13.1988 15.03 13.2292C16.19 14.0807 17 15.2262 17 16.7266V19.2609H23V16.7266C23 14.3646 18.33 13.1785 16 13.1785Z" fill="white"/>
</svg>
