<svg width="24" height="25" viewBox="0 0 24 25" fill="none" xmlns="http://www.w3.org/2000/svg">
<path d="M19.14 13.1177C19.18 12.8135 19.2 12.4993 19.2 12.1648C19.2 11.8404 19.18 11.516 19.13 11.2119L21.16 9.61016C21.34 9.46824 21.39 9.19453 21.28 8.99179L19.36 5.6262C19.24 5.40318 18.99 5.33222 18.77 5.40318L16.38 6.37636C15.88 5.99114 15.35 5.66675 14.76 5.42346L14.4 2.84858C14.36 2.60529 14.16 2.43295 13.92 2.43295H10.08C9.83999 2.43295 9.64999 2.60529 9.60999 2.84858L9.24999 5.42346C8.65999 5.66675 8.11999 6.00128 7.62999 6.37636L5.23999 5.40318C5.01999 5.32208 4.76999 5.40318 4.64999 5.6262L2.73999 8.99179C2.61999 9.20467 2.65999 9.46824 2.85999 9.61016L4.88999 11.2119C4.83999 11.516 4.79999 11.8505 4.79999 12.1648C4.79999 12.479 4.81999 12.8135 4.86999 13.1177L2.83999 14.7194C2.65999 14.8613 2.60999 15.135 2.71999 15.3377L4.63999 18.7033C4.75999 18.9263 5.00999 18.9973 5.22999 18.9263L7.61999 17.9532C8.11999 18.3384 8.64999 18.6628 9.23999 18.9061L9.59999 21.4809C9.64999 21.7242 9.83999 21.8966 10.08 21.8966H13.92C14.16 21.8966 14.36 21.7242 14.39 21.4809L14.75 18.9061C15.34 18.6628 15.88 18.3384 16.37 17.9532L18.76 18.9263C18.98 19.0074 19.23 18.9263 19.35 18.7033L21.27 15.3377C21.39 15.1147 21.34 14.8613 21.15 14.7194L19.14 13.1177ZM12 15.8142C10.02 15.8142 8.39999 14.1719 8.39999 12.1648C8.39999 10.1576 10.02 8.51533 12 8.51533C13.98 8.51533 15.6 10.1576 15.6 12.1648C15.6 14.1719 13.98 15.8142 12 15.8142Z" fill="white"/>
</svg>
