<svg width="24" height="25" viewBox="0 0 24 25" fill="none" xmlns="http://www.w3.org/2000/svg">
<path d="M11.99 2.02747C6.47 2.02747 2 6.56898 2 12.1648C2 17.7606 6.47 22.3021 11.99 22.3021C17.52 22.3021 22 17.7606 22 12.1648C22 6.56898 17.52 2.02747 11.99 2.02747ZM12 20.2746C7.58 20.2746 4 16.6455 4 12.1648C4 7.68408 7.58 4.05493 12 4.05493C16.42 4.05493 20 7.68408 20 12.1648C20 16.6455 16.42 20.2746 12 20.2746Z" fill="white"/>
<path d="M12.5 7.0961H11V13.1785L16.25 16.3717L17 15.1248L12.5 12.4182V7.0961Z" fill="white"/>
</svg>
