<svg width="24" height="25" viewBox="0 0 24 25" fill="none" xmlns="http://www.w3.org/2000/svg">
<path d="M12 2.02746C6.48 2.02746 2 6.56897 2 12.1648C2 17.7605 6.48 22.3021 12 22.3021C17.52 22.3021 22 17.7605 22 12.1648C22 6.56897 17.52 2.02746 12 2.02746ZM13 19.2609H11V17.2334H13V19.2609ZM15.07 11.4045L14.17 12.3371C13.45 13.0771 13 13.6854 13 15.2059H11V14.6991C11 13.584 11.45 12.5702 12.17 11.8302L13.41 10.5529C13.78 10.188 14 9.68112 14 9.12357C14 8.00846 13.1 7.09611 12 7.09611C10.9 7.09611 10 8.00846 10 9.12357H8C8 6.88322 9.79 5.06865 12 5.06865C14.21 5.06865 16 6.88322 16 9.12357C16 10.0156 15.64 10.8266 15.07 11.4045Z" fill="white"/>
</svg>
