<svg width="24" height="25" viewBox="0 0 24 25" fill="none" xmlns="http://www.w3.org/2000/svg">
<path d="M18 17.2334H6V15.206H18V17.2334ZM18 13.1785H6V11.151H18V13.1785ZM18 9.12358H6V7.09612H18V9.12358ZM3 22.3021L4.5 20.7815L6 22.3021L7.5 20.7815L9 22.3021L10.5 20.7815L12 22.3021L13.5 20.7815L15 22.3021L16.5 20.7815L18 22.3021L19.5 20.7815L21 22.3021V2.02747L19.5 3.54806L18 2.02747L16.5 3.54806L15 2.02747L13.5 3.54806L12 2.02747L10.5 3.54806L9 2.02747L7.5 3.54806L6 2.02747L4.5 3.54806L3 2.02747V22.3021Z" fill="white"/>
</svg>
