<svg width="18" height="18" viewBox="0 0 18 18" fill="none" xmlns="http://www.w3.org/2000/svg">
<path d="M8.991 0C4.023 0 0 4.032 0 9C0 13.968 4.023 18 8.991 18C13.968 18 18 13.968 18 9C18 4.032 13.968 0 8.991 0ZM9 16.2C5.022 16.2 1.8 12.978 1.8 9C1.8 5.022 5.022 1.8 9 1.8C12.978 1.8 16.2 5.022 16.2 9C16.2 12.978 12.978 16.2 9 16.2ZM12.15 8.1C12.897 8.1 13.5 7.497 13.5 6.75C13.5 6.003 12.897 5.4 12.15 5.4C11.403 5.4 10.8 6.003 10.8 6.75C10.8 7.497 11.403 8.1 12.15 8.1ZM5.85 8.1C6.597 8.1 7.2 7.497 7.2 6.75C7.2 6.003 6.597 5.4 5.85 5.4C5.103 5.4 4.5 6.003 4.5 6.75C4.5 7.497 5.103 8.1 5.85 8.1ZM9 13.95C11.097 13.95 12.879 12.636 13.599 10.8H4.401C5.121 12.636 6.903 13.95 9 13.95Z" fill="#777CCA"/>
</svg>
