<svg width="135" height="19" viewBox="0 0 135 19" fill="none" xmlns="http://www.w3.org/2000/svg">
<path d="M0.289062 18V0.9375H5.78516C7.29297 0.9375 8.64844 1.28125 9.85156 1.96875C11.0547 2.64844 11.9922 3.61328 12.6641 4.86328C13.3438 6.10547 13.6875 7.5 13.6953 9.04688V9.83203C13.6953 11.3945 13.3633 12.7969 12.6992 14.0391C12.043 15.2734 11.1133 16.2422 9.91016 16.9453C8.71484 17.6406 7.37891 17.9922 5.90234 18H0.289062ZM4.40234 4.11328V14.8359H5.83203C7.01172 14.8359 7.91797 14.418 8.55078 13.582C9.18359 12.7383 9.5 11.4883 9.5 9.83203V9.09375C9.5 7.44531 9.18359 6.20312 8.55078 5.36719C7.91797 4.53125 6.99609 4.11328 5.78516 4.11328H4.40234ZM25.2856 18C25.145 17.7422 25.02 17.3633 24.9106 16.8633C24.1841 17.7773 23.1684 18.2344 21.8638 18.2344C20.6684 18.2344 19.6528 17.875 18.8169 17.1562C17.9809 16.4297 17.563 15.5195 17.563 14.4258C17.563 13.0508 18.0708 12.0117 19.0864 11.3086C20.102 10.6055 21.5786 10.2539 23.5161 10.2539H24.7348V9.58594C24.7348 8.42188 24.2309 7.83984 23.2231 7.83984C22.2856 7.83984 21.8169 8.30078 21.8169 9.22266H17.8677C17.8677 7.99609 18.3872 7 19.4263 6.23438C20.4731 5.46875 21.8052 5.08594 23.4223 5.08594C25.0395 5.08594 26.3169 5.48047 27.2544 6.26953C28.1919 7.05859 28.6723 8.14062 28.6958 9.51562V15.1289C28.7114 16.293 28.8911 17.1836 29.2348 17.8008V18H25.2856ZM22.813 15.4219C23.3052 15.4219 23.7114 15.3164 24.0317 15.1055C24.3598 14.8945 24.5942 14.6562 24.7348 14.3906V12.3633H23.5864C22.2114 12.3633 21.5239 12.9805 21.5239 14.2148C21.5239 14.5742 21.645 14.8672 21.8872 15.0938C22.1294 15.3125 22.438 15.4219 22.813 15.4219ZM40.0517 14.4375C40.0517 14.1016 39.8759 13.832 39.5244 13.6289C39.1728 13.4258 38.5048 13.2148 37.5205 12.9961C36.5361 12.7773 35.7236 12.4922 35.083 12.1406C34.4423 11.7812 33.9541 11.3477 33.6181 10.8398C33.2822 10.332 33.1142 9.75 33.1142 9.09375C33.1142 7.92969 33.5947 6.97266 34.5556 6.22266C35.5166 5.46484 36.7744 5.08594 38.3291 5.08594C40.0009 5.08594 41.3447 5.46484 42.3603 6.22266C43.3759 6.98047 43.8838 7.97656 43.8838 9.21094H39.9228C39.9228 8.19531 39.3877 7.6875 38.3173 7.6875C37.9033 7.6875 37.5556 7.80469 37.2744 8.03906C36.9931 8.26562 36.8525 8.55078 36.8525 8.89453C36.8525 9.24609 37.0244 9.53125 37.3681 9.75C37.7119 9.96875 38.2588 10.1484 39.0088 10.2891C39.7666 10.4297 40.4306 10.5977 41.0009 10.793C42.9072 11.4492 43.8603 12.625 43.8603 14.3203C43.8603 15.4766 43.3447 16.418 42.3134 17.1445C41.29 17.8711 39.9619 18.2344 38.3291 18.2344C37.2431 18.2344 36.2744 18.0391 35.4228 17.6484C34.5713 17.2578 33.9072 16.7266 33.4306 16.0547C32.9541 15.3828 32.7158 14.6758 32.7158 13.9336H36.4072C36.4228 14.5195 36.6181 14.9492 36.9931 15.2227C37.3681 15.4883 37.8486 15.6211 38.4345 15.6211C38.9736 15.6211 39.3759 15.5117 39.6416 15.293C39.915 15.0742 40.0517 14.7891 40.0517 14.4375ZM52.0991 6.67969C52.9428 5.61719 54.0209 5.08594 55.3334 5.08594C56.7319 5.08594 57.7866 5.5 58.4975 6.32812C59.2084 7.15625 59.5717 8.37891 59.5873 9.99609V18H55.6264V10.0898C55.6264 9.41797 55.4897 8.92578 55.2163 8.61328C54.9428 8.29297 54.478 8.13281 53.8217 8.13281C53.0092 8.13281 52.435 8.39062 52.0991 8.90625V18H48.1498V0H52.0991V6.67969ZM76.0761 11.7656C76.0761 13.8438 75.6464 15.4414 74.787 16.5586C73.9277 17.6758 72.7167 18.2344 71.1542 18.2344C69.8652 18.2344 68.8261 17.7227 68.037 16.6992L67.873 18H64.3339V0H68.2831V6.33984C69.0175 5.50391 69.9667 5.08594 71.1308 5.08594C72.7089 5.08594 73.9277 5.65234 74.787 6.78516C75.6464 7.91797 76.0761 9.51172 76.0761 11.5664V11.7656ZM72.1152 11.5195C72.1152 10.3008 71.9511 9.43359 71.623 8.91797C71.3027 8.39453 70.8066 8.13281 70.1347 8.13281C69.2441 8.13281 68.6269 8.47266 68.2831 9.15234V14.1914C68.6191 14.8633 69.2441 15.1992 70.1581 15.1992C71.0878 15.1992 71.6777 14.7461 71.9277 13.8398C72.0527 13.3945 72.1152 12.6211 72.1152 11.5195ZM79.85 11.543C79.85 10.2773 80.0961 9.15234 80.5883 8.16797C81.0805 7.17578 81.7875 6.41406 82.7094 5.88281C83.6312 5.35156 84.7133 5.08594 85.9555 5.08594C87.8539 5.08594 89.35 5.67578 90.4437 6.85547C91.5375 8.02734 92.0844 9.625 92.0844 11.6484V11.7891C92.0844 13.7656 91.5336 15.3359 90.432 16.5C89.3383 17.6562 87.8539 18.2344 85.9789 18.2344C84.1742 18.2344 82.725 17.6953 81.6312 16.6172C80.5375 15.5312 79.9477 14.0625 79.8617 12.2109L79.85 11.543ZM83.7992 11.7891C83.7992 12.9609 83.9828 13.8203 84.35 14.3672C84.7172 14.9141 85.2602 15.1875 85.9789 15.1875C87.3852 15.1875 88.1039 14.1055 88.1352 11.9414V11.543C88.1352 9.26953 87.4086 8.13281 85.9555 8.13281C84.6352 8.13281 83.9203 9.11328 83.8109 11.0742L83.7992 11.7891ZM103.487 18C103.347 17.7422 103.222 17.3633 103.112 16.8633C102.386 17.7773 101.37 18.2344 100.065 18.2344C98.87 18.2344 97.8544 17.875 97.0184 17.1562C96.1825 16.4297 95.7645 15.5195 95.7645 14.4258C95.7645 13.0508 96.2723 12.0117 97.288 11.3086C98.3036 10.6055 99.7802 10.2539 101.718 10.2539H102.936V9.58594C102.936 8.42188 102.433 7.83984 101.425 7.83984C100.487 7.83984 100.018 8.30078 100.018 9.22266H96.0692C96.0692 7.99609 96.5888 7 97.6278 6.23438C98.6747 5.46875 100.007 5.08594 101.624 5.08594C103.241 5.08594 104.518 5.48047 105.456 6.26953C106.393 7.05859 106.874 8.14062 106.897 9.51562V15.1289C106.913 16.293 107.093 17.1836 107.436 17.8008V18H103.487ZM101.015 15.4219C101.507 15.4219 101.913 15.3164 102.233 15.1055C102.561 14.8945 102.796 14.6562 102.936 14.3906V12.3633H101.788C100.413 12.3633 99.7255 12.9805 99.7255 14.2148C99.7255 14.5742 99.8466 14.8672 100.089 15.0938C100.331 15.3125 100.64 15.4219 101.015 15.4219ZM119.285 8.89453L117.984 8.80078C116.742 8.80078 115.945 9.19141 115.593 9.97266V18H111.644V5.32031H115.347L115.476 6.94922C116.14 5.70703 117.066 5.08594 118.253 5.08594C118.675 5.08594 119.042 5.13281 119.355 5.22656L119.285 8.89453ZM122.496 11.5664C122.496 9.55859 122.93 7.97656 123.797 6.82031C124.664 5.66406 125.875 5.08594 127.43 5.08594C128.562 5.08594 129.515 5.53125 130.289 6.42188V0H134.25V18H130.699L130.5 16.6406C129.687 17.7031 128.656 18.2344 127.406 18.2344C125.898 18.2344 124.703 17.6562 123.82 16.5C122.937 15.3438 122.496 13.6992 122.496 11.5664ZM126.445 11.8125C126.445 14.0625 127.101 15.1875 128.414 15.1875C129.289 15.1875 129.914 14.8203 130.289 14.0859V9.25781C129.93 8.50781 129.312 8.13281 128.437 8.13281C127.219 8.13281 126.558 9.11719 126.457 11.0859L126.445 11.8125Z" fill="white"/>
</svg>
