<svg width="140" height="19" viewBox="0 0 140 19" fill="none" xmlns="http://www.w3.org/2000/svg">
<path d="M10.0898 13.4648C10.0898 12.8633 9.875 12.3945 9.44531 12.0586C9.02344 11.7227 8.27734 11.375 7.20703 11.0156C6.13672 10.6562 5.26172 10.3086 4.58203 9.97266C2.37109 8.88672 1.26562 7.39453 1.26562 5.49609C1.26562 4.55078 1.53906 3.71875 2.08594 3C2.64062 2.27344 3.42188 1.71094 4.42969 1.3125C5.4375 0.90625 6.57031 0.703125 7.82812 0.703125C9.05469 0.703125 10.1523 0.921875 11.1211 1.35938C12.0977 1.79687 12.8555 2.42188 13.3945 3.23438C13.9336 4.03906 14.2031 4.96094 14.2031 6H10.1016C10.1016 5.30469 9.88672 4.76562 9.45703 4.38281C9.03516 4 8.46094 3.80859 7.73438 3.80859C7 3.80859 6.41797 3.97266 5.98828 4.30078C5.56641 4.62109 5.35547 5.03125 5.35547 5.53125C5.35547 5.96875 5.58984 6.36719 6.05859 6.72656C6.52734 7.07812 7.35156 7.44531 8.53125 7.82812C9.71094 8.20312 10.6797 8.60938 11.4375 9.04688C13.2812 10.1094 14.2031 11.5742 14.2031 13.4414C14.2031 14.9336 13.6406 16.1055 12.5156 16.957C11.3906 17.8086 9.84766 18.2344 7.88672 18.2344C6.50391 18.2344 5.25 17.9883 4.125 17.4961C3.00781 16.9961 2.16406 16.3164 1.59375 15.457C1.03125 14.5898 0.75 13.5938 0.75 12.4688H4.875C4.875 13.3828 5.10938 14.0586 5.57812 14.4961C6.05469 14.9258 6.82422 15.1406 7.88672 15.1406C8.56641 15.1406 9.10156 14.9961 9.49219 14.707C9.89062 14.4102 10.0898 13.9961 10.0898 13.4648ZM29.602 12.7969L30.8794 5.32031H34.6645L31.6763 18H28.3364L26.2388 10.4766L24.1294 18H20.7895L17.8013 5.32031H21.5864L22.8403 12.9727L24.8559 5.32031H27.6098L29.602 12.7969ZM42.7744 18H38.8134V5.32031H42.7744V18ZM38.5791 2.05078C38.5791 1.48828 38.7822 1.02734 39.1884 0.667969C39.5947 0.308594 40.122 0.128906 40.7705 0.128906C41.4189 0.128906 41.9463 0.308594 42.3525 0.667969C42.7588 1.02734 42.9619 1.48828 42.9619 2.05078C42.9619 2.61328 42.7588 3.07422 42.3525 3.43359C41.9463 3.79297 41.4189 3.97266 40.7705 3.97266C40.122 3.97266 39.5947 3.79297 39.1884 3.43359C38.7822 3.07422 38.5791 2.61328 38.5791 2.05078ZM54.3764 14.4375C54.3764 14.1016 54.2006 13.832 53.8491 13.6289C53.4975 13.4258 52.8295 13.2148 51.8452 12.9961C50.8608 12.7773 50.0483 12.4922 49.4077 12.1406C48.767 11.7812 48.2788 11.3477 47.9428 10.8398C47.6069 10.332 47.4389 9.75 47.4389 9.09375C47.4389 7.92969 47.9194 6.97266 48.8803 6.22266C49.8413 5.46484 51.0991 5.08594 52.6538 5.08594C54.3256 5.08594 55.6694 5.46484 56.685 6.22266C57.7006 6.98047 58.2084 7.97656 58.2084 9.21094H54.2475C54.2475 8.19531 53.7123 7.6875 52.642 7.6875C52.228 7.6875 51.8803 7.80469 51.5991 8.03906C51.3178 8.26562 51.1772 8.55078 51.1772 8.89453C51.1772 9.24609 51.3491 9.53125 51.6928 9.75C52.0366 9.96875 52.5834 10.1484 53.3334 10.2891C54.0913 10.4297 54.7553 10.5977 55.3256 10.793C57.2319 11.4492 58.185 12.625 58.185 14.3203C58.185 15.4766 57.6694 16.418 56.6381 17.1445C55.6147 17.8711 54.2866 18.2344 52.6538 18.2344C51.5678 18.2344 50.5991 18.0391 49.7475 17.6484C48.8959 17.2578 48.2319 16.7266 47.7553 16.0547C47.2788 15.3828 47.0405 14.6758 47.0405 13.9336H50.7319C50.7475 14.5195 50.9428 14.9492 51.3178 15.2227C51.6928 15.4883 52.1733 15.6211 52.7592 15.6211C53.2983 15.6211 53.7006 15.5117 53.9663 15.293C54.2397 15.0742 54.3764 14.7891 54.3764 14.4375ZM69.2011 14.4375C69.2011 14.1016 69.0253 13.832 68.6738 13.6289C68.3222 13.4258 67.6542 13.2148 66.6698 12.9961C65.6855 12.7773 64.873 12.4922 64.2323 12.1406C63.5917 11.7812 63.1034 11.3477 62.7675 10.8398C62.4316 10.332 62.2636 9.75 62.2636 9.09375C62.2636 7.92969 62.7441 6.97266 63.705 6.22266C64.6659 5.46484 65.9238 5.08594 67.4784 5.08594C69.1503 5.08594 70.4941 5.46484 71.5097 6.22266C72.5253 6.98047 73.0331 7.97656 73.0331 9.21094H69.0722C69.0722 8.19531 68.537 7.6875 67.4667 7.6875C67.0527 7.6875 66.705 7.80469 66.4238 8.03906C66.1425 8.26562 66.0019 8.55078 66.0019 8.89453C66.0019 9.24609 66.1738 9.53125 66.5175 9.75C66.8613 9.96875 67.4081 10.1484 68.1581 10.2891C68.9159 10.4297 69.58 10.5977 70.1503 10.793C72.0566 11.4492 73.0097 12.625 73.0097 14.3203C73.0097 15.4766 72.4941 16.418 71.4628 17.1445C70.4394 17.8711 69.1113 18.2344 67.4784 18.2344C66.3925 18.2344 65.4238 18.0391 64.5722 17.6484C63.7206 17.2578 63.0566 16.7266 62.58 16.0547C62.1034 15.3828 61.8652 14.6758 61.8652 13.9336H65.5566C65.5722 14.5195 65.7675 14.9492 66.1425 15.2227C66.5175 15.4883 66.998 15.6211 67.5839 15.6211C68.123 15.6211 68.5253 15.5117 68.7909 15.293C69.0644 15.0742 69.2011 14.7891 69.2011 14.4375ZM82.9711 0.9375L86.7797 12.8086L90.5766 0.9375H95.9906V18H91.8656V14.0156L92.2641 5.85938L88.1391 18H85.4203L81.2836 5.84766L81.682 14.0156V18H77.5687V0.9375H82.9711ZM100.456 11.543C100.456 10.2773 100.702 9.15234 101.194 8.16797C101.686 7.17578 102.393 6.41406 103.315 5.88281C104.237 5.35156 105.319 5.08594 106.561 5.08594C108.46 5.08594 109.956 5.67578 111.05 6.85547C112.143 8.02734 112.69 9.625 112.69 11.6484V11.7891C112.69 13.7656 112.14 15.3359 111.038 16.5C109.944 17.6562 108.46 18.2344 106.585 18.2344C104.78 18.2344 103.331 17.6953 102.237 16.6172C101.143 15.5312 100.554 14.0625 100.468 12.2109L100.456 11.543ZM104.405 11.7891C104.405 12.9609 104.589 13.8203 104.956 14.3672C105.323 14.9141 105.866 15.1875 106.585 15.1875C107.991 15.1875 108.71 14.1055 108.741 11.9414V11.543C108.741 9.26953 108.015 8.13281 106.561 8.13281C105.241 8.13281 104.526 9.11328 104.417 11.0742L104.405 11.7891ZM121.55 2.16797V5.32031H123.636V8.0625H121.55V13.8633C121.55 14.3398 121.636 14.6719 121.808 14.8594C121.98 15.0469 122.32 15.1406 122.827 15.1406C123.218 15.1406 123.546 15.1172 123.812 15.0703V17.8945C123.101 18.1211 122.359 18.2344 121.585 18.2344C120.226 18.2344 119.222 17.9141 118.574 17.2734C117.925 16.6328 117.601 15.6602 117.601 14.3555V8.0625H115.984V5.32031H117.601V2.16797H121.55ZM133.855 18.2344C131.91 18.2344 130.336 17.6562 129.133 16.5C127.93 15.3359 127.328 13.8242 127.328 11.9648V11.6367C127.328 10.3398 127.566 9.19531 128.043 8.20312C128.527 7.21094 129.23 6.44531 130.152 5.90625C131.074 5.35938 132.168 5.08594 133.433 5.08594C135.215 5.08594 136.621 5.64062 137.652 6.75C138.683 7.85156 139.199 9.39062 139.199 11.3672V12.9023H131.348C131.488 13.6133 131.797 14.1719 132.273 14.5781C132.75 14.9844 133.367 15.1875 134.125 15.1875C135.375 15.1875 136.351 14.75 137.055 13.875L138.859 16.0078C138.367 16.6875 137.668 17.2305 136.762 17.6367C135.863 18.0352 134.894 18.2344 133.855 18.2344ZM133.41 8.13281C132.254 8.13281 131.566 8.89844 131.348 10.4297H135.332V10.125C135.348 9.49219 135.187 9.00391 134.851 8.66016C134.515 8.30859 134.035 8.13281 133.41 8.13281Z" fill="white"/>
</svg>
