<svg width="22" height="15" viewBox="0 0 22 15" fill="none" xmlns="http://www.w3.org/2000/svg">
<path d="M15 6.15104C16.66 6.15104 17.99 4.79265 17.99 3.10985C17.99 1.42706 16.66 0.0686646 15 0.0686646C13.34 0.0686646 12 1.42706 12 3.10985C12 4.79265 13.34 6.15104 15 6.15104ZM7 6.15104C8.66 6.15104 9.99 4.79265 9.99 3.10985C9.99 1.42706 8.66 0.0686646 7 0.0686646C5.34 0.0686646 4 1.42706 4 3.10985C4 4.79265 5.34 6.15104 7 6.15104ZM7 8.1785C4.67 8.1785 0 9.36457 0 11.7266V14.2609H14V11.7266C14 9.36457 9.33 8.1785 7 8.1785ZM15 8.1785C14.71 8.1785 14.38 8.19878 14.03 8.22919C15.19 9.08072 16 10.2262 16 11.7266V14.2609H22V11.7266C22 9.36457 17.33 8.1785 15 8.1785Z" fill="#011526"/>
</svg>
